<svg width="144" height="20" fill="none" xmlns="http://www.w3.org/2000/svg"><path d="M8.242.592h3.328l2.106 6.11 2.132-6.11h3.302L15.938 8.99l2.34 5.876L23.504.54h3.9L20.02 19h-3.094l-3.25-7.748L10.452 19H7.358L0 .54h3.848L9.1 14.866l2.288-5.876L8.242.592ZM34.227 19.26c-1.092 0-2.08-.182-2.964-.546-.884-.3813-1.638-.8927-2.262-1.534-.624-.6587-1.1094-1.404-1.456-2.236-.3294-.8493-.494-1.742-.494-2.678 0-1.3.286-2.4873.858-3.562.5893-1.0747 1.4213-1.9327 2.496-2.574 1.092-.6587 2.3746-.988 3.848-.988 1.4906 0 2.7646.3293 3.822.988 1.0573.6413 1.8633 1.4993 2.418 2.574.572 1.0573.858 2.2013.858 3.432 0 .208-.0087.4247-.026.65-.0174.208-.0347.3813-.052.52h-10.53c.0693.6933.2686 1.3.598 1.82.3466.52.78.9187 1.3 1.196.5373.26 1.1093.39 1.716.39.6933 0 1.3433-.1647 1.95-.494.624-.3467 1.0486-.7973 1.274-1.352l2.99.832c-.3294.6933-.806 1.3087-1.43 1.846-.6067.5373-1.326.962-2.158 1.274-.832.2947-1.7507.442-2.756.442Zm-3.562-8.164h7.124c-.0694-.6933-.2687-1.2913-.598-1.794-.312-.52-.728-.9187-1.248-1.196-.52-.2947-1.1007-.442-1.742-.442-.624 0-1.196.1473-1.716.442-.5027.2773-.9187.676-1.248 1.196-.312.5027-.5027 1.1007-.572 1.794Zm21.3364 8.164c-1.04 0-1.9673-.234-2.782-.702-.8146-.468-1.456-1.1093-1.924-1.924V19h-3.042V.02h3.484v7.748c.4854-.8147 1.118-1.456 1.898-1.924.7974-.468 1.7247-.702 2.782-.702.884 0 1.69.1907 2.418.572.728.364 1.352.8753 1.872 1.534.5374.6587.9447 1.4127 1.222 2.262.2947.8493.442 1.7593.442 2.73 0 .9707-.1646 1.8807-.494 2.73-.312.8493-.754 1.6033-1.326 2.262-.572.6413-1.248 1.144-2.028 1.508-.7626.3467-1.6033.52-2.522.52Zm-.962-2.964c.5547 0 1.0574-.104 1.508-.312.468-.2253.8667-.52 1.196-.884.3467-.364.6067-.7887.78-1.274a4.3625 4.3625 0 0 0 .286-1.56c0-.7453-.156-1.43-.468-2.054-.2946-.6413-.7106-1.1527-1.248-1.534-.52-.3813-1.1353-.572-1.846-.572-.5026 0-.988.1213-1.456.364-.4506.2253-.858.5373-1.222.936-.3466.3987-.624.8493-.832 1.352v3.25c.104.3467.2687.6587.494.936.2427.2773.52.52.832.728.312.1907.6327.3467.962.468.3467.104.6847.156 1.014.156Z" fill="#2196F3"/><path d="M72.8479 5.376c-.1213-.1213-.3466-.286-.676-.494-.312-.208-.702-.4073-1.17-.598-.4506-.1907-.9446-.3553-1.482-.494a5.8461 5.8461 0 0 0-1.638-.234c-.9706 0-1.7073.182-2.21.546-.4853.364-.728.8753-.728 1.534 0 .5027.156.9013.468 1.196.312.2947.78.546 1.404.754.624.208 1.404.4333 2.34.676 1.2134.2947 2.262.6587 3.146 1.092.9014.416 1.586.9707 2.054 1.664.4854.676.728 1.5773.728 2.704 0 .988-.182 1.8373-.546 2.548-.364.6933-.8666 1.2567-1.508 1.69-.6413.4333-1.3693.754-2.184.962-.8146.1907-1.6813.286-2.6.286-.9186 0-1.8373-.0953-2.756-.286-.9186-.1907-1.8026-.4593-2.652-.806-.8493-.364-1.6293-.7973-2.34-1.3l1.586-3.094c.156.156.4334.364.832.624.3987.2427.884.494 1.456.754.572.2427 1.196.4507 1.872.624.676.1733 1.3607.26 2.054.26.9707 0 1.7074-.1647 2.21-.494.5027-.3293.754-.7973.754-1.404 0-.5547-.1993-.988-.598-1.3-.3986-.312-.9533-.5807-1.664-.806-.7106-.2427-1.5513-.5027-2.522-.78-1.1613-.3293-2.132-.6933-2.912-1.092-.78-.416-1.3606-.936-1.742-1.56-.3813-.624-.572-1.404-.572-2.34 0-1.2653.2947-2.3227.884-3.172.6067-.8667 1.4214-1.5167 2.444-1.95 1.0227-.4507 2.158-.676 3.406-.676.8667 0 1.6814.0953 2.444.286.78.1907 1.508.442 2.184.754.676.312 1.2827.65 1.82 1.014l-1.586 2.912Zm13.2487 12.922c-.2947.1213-.65.26-1.066.416-.416.156-.8667.2773-1.352.364-.468.104-.9447.156-1.43.156-.6414 0-1.2307-.1127-1.768-.338-.5374-.2253-.9707-.5807-1.3-1.066-.312-.5027-.468-1.1527-.468-1.95V8.054h-1.794V5.376h1.794V.956h3.484v4.42h2.86v2.678h-2.86v6.656c.0173.468.1473.806.39 1.014.2426.208.546.312.91.312s.7193-.0607 1.066-.182c.3466-.1213.624-.2253.832-.312l.702 2.756Zm2.4645-4.394V5.376h3.484v7.774c0 1.04.1906 1.8287.572 2.366.3813.52.9446.78 1.69.78.4506 0 .8926-.0867 1.326-.26.4506-.1907.858-.468 1.222-.832.3813-.364.702-.8233.962-1.378v-8.45h3.4839V15.1c0 .364.061.624.182.78.139.156.355.2513.65.286V19c-.347.052-.641.0867-.884.104-.225.0347-.433.052-.624.052-.624 0-1.1353-.1387-1.5339-.416-.3814-.2947-.6067-.6933-.676-1.196l-.078-1.092c-.6067.9187-1.3867 1.6207-2.34 2.106-.9534.468-2.002.702-3.146.702-1.404 0-2.47-.4507-3.198-1.352-.728-.9187-1.092-2.2533-1.092-4.004Zm16.1499-1.716c0-1.3173.26-2.5047.78-3.562.52-1.0747 1.24-1.924 2.158-2.548.919-.624 1.968-.936 3.146-.936 1.006 0 1.907.2513 2.704.754.815.4853 1.448 1.1093 1.898 1.872V.02h3.484V15.1c0 .364.061.624.182.78.122.156.33.2513.624.286V19c-.606.1213-1.1.182-1.482.182-.624 0-1.144-.156-1.56-.468-.398-.312-.624-.7193-.676-1.222l-.052-.858c-.502.8493-1.187 1.4993-2.054 1.95-.849.4507-1.742.676-2.678.676-.936 0-1.802-.182-2.6-.546-.78-.364-1.464-.8667-2.054-1.508-.572-.6413-1.022-1.3867-1.352-2.236-.312-.8667-.468-1.794-.468-2.782Zm10.686 1.82v-3.25c-.173-.5027-.45-.9533-.832-1.352-.381-.3987-.806-.7107-1.274-.936-.468-.2427-.936-.364-1.404-.364-.537 0-1.022.1127-1.456.338-.433.2253-.814.5287-1.144.91-.312.3813-.554.8233-.728 1.326-.156.5027-.234 1.0313-.234 1.586s.087 1.0833.26 1.586c.191.4853.46.91.806 1.274.347.364.746.65 1.196.858.468.208.971.312 1.508.312.33 0 .659-.052.988-.156.347-.1213.668-.2773.962-.468.312-.208.581-.4507.806-.728.243-.2947.425-.6067.546-.936ZM123.081 19V5.376h3.484V19h-3.484Zm0-15.522V.02h3.484v3.458h-3.484ZM136.78 19.26c-1.109 0-2.106-.182-2.99-.546-.884-.3813-1.638-.9013-2.262-1.56-.607-.6587-1.075-1.4127-1.404-2.262-.329-.8493-.494-1.742-.494-2.678 0-.9533.165-1.8547.494-2.704.329-.8493.797-1.6033 1.404-2.262.624-.6587 1.378-1.17 2.262-1.534.884-.3813 1.881-.572 2.99-.572 1.109 0 2.097.1907 2.964.572.884.364 1.638.8753 2.262 1.534.624.6587 1.092 1.4127 1.404 2.262.329.8493.494 1.7507.494 2.704 0 .936-.165 1.8287-.494 2.678-.312.8493-.78 1.6033-1.404 2.262-.607.6587-1.352 1.1787-2.236 1.56-.884.364-1.881.546-2.99.546Zm-3.562-7.046c0 .7973.156 1.508.468 2.132.312.6067.737 1.0833 1.274 1.43s1.144.52 1.82.52c.659 0 1.257-.1733 1.794-.52.537-.364.962-.8493 1.274-1.456.329-.624.494-1.3347.494-2.132 0-.78-.165-1.482-.494-2.106-.312-.624-.737-1.1093-1.274-1.456s-1.135-.52-1.794-.52c-.676 0-1.283.182-1.82.546-.537.3467-.962.832-1.274 1.456-.312.6067-.468 1.3087-.468 2.106Z" fill="#000"/></svg>